<svg id="Camada_1" data-name="Camada 1" xmlns="http://www.w3.org/2000/svg" viewBox="0 0 400 400"><defs><style>.cls-1{fill:none;stroke:#000;stroke-miterlimit:10;stroke-width:3px;}</style></defs><path d="M86.86,265.21c-1.61,0-3.23,0-4.83-.16a119.91,119.91,0,0,1,73.38-91.72,71.55,71.55,0,0,1-68.55,91.88Z"/><path d="M155.08,174a71,71,0,0,1-68.22,90.71c-1.42,0-2.84,0-4.24-.12A119.39,119.39,0,0,1,155.08,174m.65-1.34a120.16,120.16,0,0,0-74.28,92.85c1.79.14,3.59.2,5.41.2a72,72,0,0,0,68.87-93Z"/><path d="M182.36,291.32l-1.35-.57c.45.1.91.21,1.36.34Z"/><path d="M177.83,289.78a47.41,47.41,0,0,0,5,2.27v-.28c0-.36,0-.7,0-1a24,24,0,0,0-5-.94Z"/><path d="M200,313.77c-.45.2-.91.38-1.37.55.44.16.89.31,1.34.45H200c0-.33,0-.67,0-1Z"/><path d="M214.9,292.05a22.62,22.62,0,0,1,4.09-1.3c-1.34.58-2.71,1.11-4.1,1.57A2.44,2.44,0,0,0,214.9,292.05Z"/><path d="M222.17,289.78a23.8,23.8,0,0,0-7.77,1.94v0c0,.42,0,.83,0,1.24a47.61,47.61,0,0,0,7.8-3.23Z"/><path d="M307,265.21a71.41,71.41,0,0,1-56-27.07c-1.4-1.38-2.79-2.65-4.19-3.83-.38-1.4-.83-2.8-1.35-4.18V230l-.11-.1a70.09,70.09,0,0,1-4.33-8.67,71.72,71.72,0,0,1-1.9-50,119.17,119.17,0,0,1,78.79,93.13A71.51,71.51,0,0,1,307,265.21Z"/><path d="M239.39,171.9A119.18,119.18,0,0,1,317.28,264a71.91,71.91,0,0,1-10.31.74,70.62,70.62,0,0,1-49.83-20.42,73.08,73.08,0,0,1-5.8-6.46l-.06-.08-.05,0c-1.3-1.28-2.66-2.52-4-3.68-.36-1.33-.8-2.67-1.29-4v-.24l-.2-.2a69.55,69.55,0,0,1-4.27-8.55,71.21,71.21,0,0,1-2-49.15m-.63-1.27a72.17,72.17,0,0,0,1.75,50.81,69,69,0,0,0,4.39,8.77h0c.54,1.43,1,2.88,1.41,4.37,1.45,1.22,2.86,2.5,4.21,3.83h0a74.59,74.59,0,0,0,5.88,6.56h0a72.12,72.12,0,0,0,62,19.79,120.17,120.17,0,0,0-79.68-94.17Z"/><path d="M86.86,265.21c-1.61,0-3.23,0-4.83-.16a119.91,119.91,0,0,1,73.38-91.72,71.55,71.55,0,0,1-68.55,91.88Z"/><path d="M155.08,174a71,71,0,0,1-68.22,90.71c-1.42,0-2.84,0-4.24-.12A119.39,119.39,0,0,1,155.08,174m.65-1.34a120.16,120.16,0,0,0-74.28,92.85c1.79.14,3.59.2,5.41.2a72,72,0,0,0,68.87-93Z"/><path d="M182.36,291.32l-1.35-.57c.45.1.91.21,1.36.34Z"/><path d="M177.83,289.78a47.41,47.41,0,0,0,5,2.27v-.28c0-.36,0-.7,0-1a24,24,0,0,0-5-.94Z"/><path d="M200,313.77c-.45.2-.91.38-1.37.55.44.16.89.31,1.34.45H200c0-.33,0-.67,0-1Z"/><path d="M214.9,292.05a22.62,22.62,0,0,1,4.09-1.3c-1.34.58-2.71,1.11-4.1,1.57A2.44,2.44,0,0,0,214.9,292.05Z"/><path d="M222.17,289.78a23.8,23.8,0,0,0-7.77,1.94v0c0,.42,0,.83,0,1.24a47.61,47.61,0,0,0,7.8-3.23Z"/><path d="M307,265.21a71.41,71.41,0,0,1-56-27.07c-1.4-1.38-2.79-2.65-4.19-3.83-.38-1.4-.83-2.8-1.35-4.18V230l-.11-.1a70.09,70.09,0,0,1-4.33-8.67,71.72,71.72,0,0,1-1.9-50,119.17,119.17,0,0,1,78.79,93.13A71.51,71.51,0,0,1,307,265.21Z"/><path d="M239.39,171.9A119.18,119.18,0,0,1,317.28,264a71.91,71.91,0,0,1-10.31.74,70.62,70.62,0,0,1-49.83-20.42,73.08,73.08,0,0,1-5.8-6.46l-.06-.08-.05,0c-1.3-1.28-2.66-2.52-4-3.68-.36-1.33-.8-2.67-1.29-4v-.24l-.2-.2a69.55,69.55,0,0,1-4.27-8.55,71.21,71.21,0,0,1-2-49.15m-.63-1.27a72.17,72.17,0,0,0,1.75,50.81,69,69,0,0,0,4.39,8.77h0c.54,1.43,1,2.88,1.41,4.37,1.45,1.22,2.86,2.5,4.21,3.83h0a74.59,74.59,0,0,0,5.88,6.56h0a72.12,72.12,0,0,0,62,19.79,120.17,120.17,0,0,0-79.68-94.17Z"/><path d="M182.36,291.32l-1.35-.57c.45.1.91.21,1.36.34Z"/><path d="M177.83,289.78a47.41,47.41,0,0,0,5,2.27v-.28c0-.36,0-.7,0-1a24,24,0,0,0-5-.94Z"/><path d="M200,313.77c-.45.2-.91.38-1.37.55.44.16.89.31,1.34.45,0-.33,0-.66,0-1Z"/><path d="M182.36,291.32l-1.35-.57c.45.1.91.21,1.36.34Z"/><path d="M177.83,289.78a47.41,47.41,0,0,0,5,2.27v-.28c0-.36,0-.7,0-1a24,24,0,0,0-5-.94Z"/><path d="M200,313.77c-.45.2-.91.38-1.37.55.44.16.89.31,1.34.45H200c0-.33,0-.67,0-1Z"/><path d="M182.36,291.32l-1.35-.57c.45.1.91.21,1.36.34Z"/><path d="M177.83,289.78a47.41,47.41,0,0,0,5,2.27v-.28c0-.36,0-.7,0-1a24,24,0,0,0-5-.94Z"/><path d="M244.9,230.21a69,69,0,0,1-4.39-8.77A48.24,48.24,0,0,1,244.9,230.21Z"/><path d="M240.51,221.44a69,69,0,0,0,4.39,8.77,48.24,48.24,0,0,0-4.39-8.77Z"/><path d="M333.26,164.59a192.82,192.82,0,0,0-47.42-40.07c-4.36-2.62-8.84-5.07-13.31-7.29a47.5,47.5,0,1,1,60.73,47.36Z"/><path d="M320,72A47,47,0,0,1,333.43,164a193,193,0,0,0-47.33-39.93c-4.28-2.57-8.67-5-13.06-7.17A47,47,0,0,1,320,72m0-1a48,48,0,0,0-48,46.56q7,3.43,13.56,7.41a192.76,192.76,0,0,1,47.51,40.22A48,48,0,0,0,320,71Z"/><path d="M49.27,155.2A47.51,47.51,0,1,1,126,107.08,192.36,192.36,0,0,0,49.27,155.2Z"/><path d="M80,72a46.88,46.88,0,0,1,45.39,34.78,192.85,192.85,0,0,0-76.15,47.76A47,47,0,0,1,80,72m0-1a48,48,0,0,0-30.69,84.91,192.08,192.08,0,0,1,77.28-48.48A48,48,0,0,0,80,71Z"/><path d="M206.86,315.31a23.34,23.34,0,0,1-6.35-.87c0-.21,0-.42,0-.63V313l-.7.31c-.44.2-.89.38-1.34.55a23.52,23.52,0,0,1-30.2-30,48.54,48.54,0,0,0,9.34,6.35,45.28,45.28,0,0,0,5.08,2.28l.68.26v-1.38a23.21,23.21,0,0,1,6.22,3.15l.13.09h.16A47.77,47.77,0,0,0,200,295.74a48.71,48.71,0,0,0,10.17-1.07h.11l.15-.09a21.52,21.52,0,0,1,3.46-2c0,.16,0,.33,0,.49l0,.72.68-.22a48.18,48.18,0,0,0,15-7.83,23.81,23.81,0,0,1,.78,5.06q0,.54,0,1.05A23.52,23.52,0,0,1,206.86,315.31Z"/><path d="M168.5,284.77a48.55,48.55,0,0,0,8.87,5.94A46.23,46.23,0,0,0,182.5,293l1.36.52v-1.41a22.69,22.69,0,0,1,5.42,2.86l.28.18h.21a49.44,49.44,0,0,0,20.46,0h.23l.26-.19a21.53,21.53,0,0,1,2.63-1.61l0,1.07,1.37-.43a49,49,0,0,0,14.58-7.46,23.25,23.25,0,0,1,.58,4.25c0,.34,0,.68,0,1A23,23,0,0,1,201,314.06v-1.78l-1.4.61c-.46.21-.89.38-1.31.54a23,23,0,0,1-30.89-21.62v-.05a22.91,22.91,0,0,1,1.1-7m-.45-1.71a24,24,0,0,0-1.65,8.7v.05a24,24,0,0,0,32.23,22.56c.46-.18.92-.36,1.37-.56q0,.51,0,1a24,24,0,0,0,30.83-23c0-.35,0-.71,0-1.07a23.81,23.81,0,0,0-1-5.89,48.1,48.1,0,0,1-15.46,8.2c0-.41,0-.82,0-1.24v-.05a23.56,23.56,0,0,0-4.27,2.41h0a48.39,48.39,0,0,1-20.24,0h0a23.78,23.78,0,0,0-7-3.41c0,.35,0,.7,0,1.05v.28a48.21,48.21,0,0,1-14.81-9Z"/><path d="M182.36,291.32l-1.35-.57c.45.1.91.21,1.36.34Z"/><path d="M177.83,289.78a47.41,47.41,0,0,0,5,2.27v-.28c0-.36,0-.7,0-1a24,24,0,0,0-5-.94Z"/><path d="M200,313.77c-.45.2-.91.38-1.37.55.44.16.89.31,1.34.45H200c0-.33,0-.67,0-1Z"/><path d="M256.44,245a74.59,74.59,0,0,1-5.88-6.56A70.38,70.38,0,0,1,256.44,245Z"/><path d="M250.56,238.45a74.59,74.59,0,0,0,5.88,6.56,70.38,70.38,0,0,0-5.88-6.56Z"/><path d="M86.86,265.21c-1.61,0-3.23,0-4.83-.16a119.91,119.91,0,0,1,73.38-91.72,71.55,71.55,0,0,1-68.55,91.88Z"/><path d="M155.08,174a71,71,0,0,1-68.22,90.71c-1.42,0-2.84,0-4.24-.12A119.39,119.39,0,0,1,155.08,174m.65-1.34a120.16,120.16,0,0,0-74.28,92.85c1.79.14,3.59.2,5.41.2a72,72,0,0,0,68.87-93Z"/><path d="M307,265.21a71.41,71.41,0,0,1-56-27.07,69,69,0,0,1-5.54-8V230l-.11-.1a70.09,70.09,0,0,1-4.33-8.67,71.72,71.72,0,0,1-1.9-50,119.17,119.17,0,0,1,78.79,93.13A71.51,71.51,0,0,1,307,265.21Z"/><path d="M239.39,171.9A119.18,119.18,0,0,1,317.28,264a71.91,71.91,0,0,1-10.31.74,70.62,70.62,0,0,1-49.83-20.42,73.08,73.08,0,0,1-5.8-6.46l-.06-.07a70.3,70.3,0,0,1-5.37-7.81v-.15l-.2-.2a69.55,69.55,0,0,1-4.27-8.55,71.21,71.21,0,0,1-2-49.15m-.63-1.27a72.17,72.17,0,0,0,1.75,50.81,69,69,0,0,0,4.39,8.77h0a69.92,69.92,0,0,0,5.62,8.2h0a74.59,74.59,0,0,0,5.88,6.56h0a72.12,72.12,0,0,0,62,19.79,120.17,120.17,0,0,0-79.68-94.17Z"/><path class="cls-1" d="M199.66,313.71v11.66s-13.48,8.23-21.83,0"/><path class="cls-1" d="M199.66,314.06v11.31s13.48,8.23,21.82,0"/></svg>